<?xml version="1.0" encoding="UTF-8"?><svg xmlns="http://www.w3.org/2000/svg" xmlns:xlink="http://www.w3.org/1999/xlink" fill-opacity="1" color-rendering="auto" color-interpolation="auto" text-rendering="auto" stroke="black" stroke-linecap="square" width="216" stroke-miterlimit="10" shape-rendering="auto" stroke-opacity="1" fill="black" stroke-dasharray="none" font-weight="normal" stroke-width="1" height="444" font-family="'Dialog'" font-style="normal" stroke-linejoin="miter" font-size="12px" stroke-dashoffset="0" image-rendering="auto">
  <!--Generated by ySVG 2.6-->
  <defs id="genericDefs"/>
  <g>
    <g fill="white" text-rendering="geometricPrecision" shape-rendering="geometricPrecision" transform="translate(40,29)" stroke="white">
      <rect x="-40" width="216" height="444" y="-29" clip-path="url(#clipPath2)" stroke="none"/>
    </g>
    <g text-rendering="geometricPrecision" shape-rendering="geometricPrecision" transform="matrix(0.4698,0,0,0.4701,71.25,15)">
      <g clip-path="url(#clipPath3)">
        <svg xml:space="preserve" opacity="1" margin-top="0" indent="0" writing-mode="lr-tb" stop-color="rgb(0, 0, 0)" shape-rendering="auto" glyph-orientation-horizontal="0deg" color-profile="auto" lighting-color="rgb(255, 255, 255)" color="rgb(0, 0, 0)" font-weight="400" alignment-baseline="auto" font-style="normal" version="1.2" color-interpolation-filters="linearrgb" text-anchor="start" stroke-linecap="butt" color-interpolation="srgb" font-variant="normal" margin-left="0" solid-color="rgb(0, 0, 0)" word-spacing="normal" fill-opacity="1" text-rendering="auto" clip-path="none" text-decoration="none" letter-spacing="normal" viewBox="2753 19803 2112 4390" glyph-orientation-vertical="auto" margin-right="0" display="inline" font-size-adjust="none" margin-bottom="0" overflow="hidden" fill="rgb(0, 0, 0)" font-stretch="normal" stroke-dasharray="none" stroke-miterlimit="4" stop-opacity="1" baseProfile="tiny" color-rendering="auto" font-size="12" pointer-events="visiblepainted" mask="none" direction="ltr" baseline-shift="baseline" enable-background="accumulate" fill-rule="evenodd" image-rendering="auto" solid-opacity="1" stroke-dashoffset="0" width="21.12mm" marker-end="none" clip="auto" cursor="auto" stroke="none" filter="none" visibility="visible" kerning="auto" stroke-width="28.222" font-family="&quot;Arial&quot;,&quot;Helvetica&quot;,sans-serif" preserveAspectRatio="xMidYMid" flood-opacity="1" clip-rule="nonzero" src="none" height="43.9mm" text-align="inherit" line-height="normal" unicode-bidi="normal" stroke-linejoin="round" stroke-opacity="1" flood-color="rgb(0, 0, 0)" dominant-baseline="auto" marker-start="none" marker-mid="none">
 <g visibility="visible" id="svg1.Slide_1" xml:id="svg1.Slide_1">
  <g id="svg1.DrawingGroup_1" xml:id="svg1.DrawingGroup_1">
   <g>
    <path fill="rgb(221,221,221)" d="M 3749,24173 C 4132,24173 4864,24011 4864,23689 4864,23367 4828,23367 4446,23367 4446,23609 3749,23850 3749,24173 Z" stroke="none"/>
    <path fill="none" d="M 3749,24173 C 4132,24173 4864,24011 4864,23689 4864,23367 4828,23367 4446,23367 4446,23609 3749,23850 3749,24173 Z" id="svg1.Drawing_1_0" xml:id="svg1.Drawing_1_0" stroke="rgb(221,221,221)" stroke-linejoin="round"/>
   </g>
   <g id="svg1.DrawingGroup_2" xml:id="svg1.DrawingGroup_2">
    <g>
     <path fill="rgb(179,179,179)" d="M 3749,23699 L 3749,22320 4446,21917 4446,23699 3749,23699 Z" stroke="none"/>
     <path fill="rgb(180,180,180)" d="M 4446,23699 L 4446,23770 3749,24173 3749,23699 4446,23699 Z M 3749,23676 L 3749,22320 4446,21917 4446,23676 3749,23676 Z" stroke="none"/>
     <path fill="rgb(181,181,181)" d="M 4446,23676 L 4446,23770 3749,24173 3749,23676 4446,23676 Z M 3749,23654 L 3749,22320 4446,21917 4446,23654 3749,23654 Z" stroke="none"/>
     <path fill="rgb(182,182,182)" d="M 4446,23654 L 4446,23770 3749,24173 3749,23654 4446,23654 Z M 3749,23631 L 3749,22320 4446,21917 4446,23631 3749,23631 Z" stroke="none"/>
     <path fill="rgb(183,183,183)" d="M 4446,23631 L 4446,23770 3749,24173 3749,23631 4446,23631 Z M 3749,23609 L 3749,22320 4446,21917 4446,23609 3749,23609 Z" stroke="none"/>
     <path fill="rgb(184,184,184)" d="M 4446,23609 L 4446,23770 3749,24173 3749,23609 4446,23609 Z M 3749,23586 L 3749,22320 4446,21917 4446,23586 3749,23586 Z" stroke="none"/>
     <path fill="rgb(185,185,185)" d="M 4446,23586 L 4446,23770 3749,24173 3749,23586 4446,23586 Z M 3749,23563 L 3749,22320 4446,21917 4446,23563 3749,23563 Z" stroke="none"/>
     <path fill="rgb(186,186,186)" d="M 4446,23563 L 4446,23770 3749,24173 3749,23563 4446,23563 Z M 3749,23541 L 3749,22320 4446,21917 4446,23541 3749,23541 Z" stroke="none"/>
     <path fill="rgb(187,187,187)" d="M 4446,23541 L 4446,23770 3749,24173 3749,23541 4446,23541 Z M 3749,23518 L 3749,22320 4446,21917 4446,23518 3749,23518 Z" stroke="none"/>
     <path fill="rgb(188,188,188)" d="M 4446,23518 L 4446,23770 3749,24173 3749,23518 4446,23518 Z M 3749,23496 L 3749,22320 4446,21917 4446,23496 3749,23496 Z" stroke="none"/>
     <path fill="rgb(189,189,189)" d="M 4446,23496 L 4446,23770 3749,24173 3749,23496 4446,23496 Z M 3749,23473 L 3749,22320 4446,21917 4446,23473 3749,23473 Z" stroke="none"/>
     <path fill="rgb(190,190,190)" d="M 4446,23473 L 4446,23770 3749,24173 3749,23473 4446,23473 Z M 3749,23450 L 3749,22320 4446,21917 4446,23450 3749,23450 Z" stroke="none"/>
     <path fill="rgb(191,191,191)" d="M 4446,23450 L 4446,23770 3749,24173 3749,23450 4446,23450 Z M 3749,23428 L 3749,22320 4446,21917 4446,23428 3749,23428 Z" stroke="none"/>
     <path fill="rgb(192,192,192)" d="M 4446,23428 L 4446,23770 3749,24173 3749,23428 4446,23428 Z M 3749,23405 L 3749,22320 4446,21917 4446,23405 3749,23405 Z" stroke="none"/>
     <path fill="rgb(193,193,193)" d="M 4446,23405 L 4446,23770 3749,24173 3749,23405 4446,23405 Z M 3749,23383 L 3749,22320 4446,21917 4446,23383 3749,23383 Z" stroke="none"/>
     <path fill="rgb(194,194,194)" d="M 4446,23383 L 4446,23770 3749,24173 3749,23383 4446,23383 Z M 3749,23360 L 3749,22320 4446,21917 4446,23360 3749,23360 Z" stroke="none"/>
     <path fill="rgb(195,195,195)" d="M 4446,23360 L 4446,23770 3749,24173 3749,23360 4446,23360 Z M 3749,23337 L 3749,22320 4446,21917 4446,23337 3749,23337 Z" stroke="none"/>
     <path fill="rgb(196,196,196)" d="M 4446,23337 L 4446,23770 3749,24173 3749,23337 4446,23337 Z M 3749,23315 L 3749,22320 4446,21917 4446,23315 3749,23315 Z" stroke="none"/>
     <path fill="rgb(197,197,197)" d="M 4446,23315 L 4446,23770 3749,24173 3749,23315 4446,23315 Z M 3749,23292 L 3749,22320 4446,21917 4446,23292 3749,23292 Z" stroke="none"/>
     <path fill="rgb(198,198,198)" d="M 4446,23292 L 4446,23770 3749,24173 3749,23292 4446,23292 Z M 3749,23270 L 3749,22320 4446,21917 4446,23270 3749,23270 Z" stroke="none"/>
     <path fill="rgb(199,199,199)" d="M 4446,23270 L 4446,23770 3749,24173 3749,23270 4446,23270 Z M 4446,21938 L 4446,23247 3749,23247 3749,22320 4410,21938 4446,21938 Z" stroke="none"/>
     <path fill="rgb(200,200,200)" d="M 4446,23247 L 4446,23770 3749,24173 3749,23247 4446,23247 Z M 4410,21938 L 4446,21917 4446,21938 4410,21938 Z M 4446,21960 L 4446,23225 3749,23225 3749,22320 4372,21960 4446,21960 Z" stroke="none"/>
     <path fill="rgb(201,201,201)" d="M 4446,23225 L 4446,23770 3749,24173 3749,23225 4446,23225 Z M 4372,21960 L 4446,21917 4446,21960 4372,21960 Z M 4446,21983 L 4446,23202 3749,23202 3749,22320 4332,21983 4446,21983 Z" stroke="none"/>
     <path fill="rgb(202,202,202)" d="M 4446,23202 L 4446,23770 3749,24173 3749,23202 4446,23202 Z M 4332,21983 L 4446,21917 4446,21983 4332,21983 Z M 4446,22006 L 4446,23179 3749,23179 3749,22320 4292,22006 4446,22006 Z" stroke="none"/>
     <path fill="rgb(203,203,203)" d="M 4446,23179 L 4446,23770 3749,24173 3749,23179 4446,23179 Z M 4292,22006 L 4446,21917 4446,22006 4292,22006 Z M 4446,22028 L 4446,23157 3749,23157 3749,22320 4254,22028 4446,22028 Z" stroke="none"/>
     <path fill="rgb(204,204,204)" d="M 4446,23157 L 4446,23770 3749,24173 3749,23157 4446,23157 Z M 4254,22028 L 4446,21917 4446,22028 4254,22028 Z M 4446,22051 L 4446,23134 3749,23134 3749,22320 4214,22051 4446,22051 Z" stroke="none"/>
     <path fill="rgb(205,205,205)" d="M 4446,23134 L 4446,23770 3749,24173 3749,23134 4446,23134 Z M 4214,22051 L 4446,21917 4446,22051 4214,22051 Z M 4446,22073 L 4446,23112 3749,23112 3749,22320 4176,22073 4446,22073 Z" stroke="none"/>
     <path fill="rgb(206,206,206)" d="M 4446,23112 L 4446,23770 3749,24173 3749,23112 4446,23112 Z M 4176,22073 L 4446,21917 4446,22073 4176,22073 Z M 4446,22096 L 4446,23089 3749,23089 3749,22320 4136,22096 4446,22096 Z" stroke="none"/>
     <path fill="rgb(207,207,207)" d="M 4446,23089 L 4446,23770 3749,24173 3749,23089 4446,23089 Z M 4136,22096 L 4446,21917 4446,22096 4136,22096 Z M 4431,22119 L 4431,23066 3749,23066 3749,22320 4097,22119 4431,22119 Z" stroke="none"/>
     <path fill="rgb(208,208,208)" d="M 4431,23066 L 4431,22119 4097,22119 4446,21917 4446,23770 3749,24173 3749,23066 4431,23066 Z M 4409,22141 L 4409,23044 3749,23044 3749,22320 4059,22141 4409,22141 Z" stroke="none"/>
     <path fill="rgb(209,209,209)" d="M 4409,23044 L 4409,22141 4059,22141 4446,21917 4446,23770 3749,24173 3749,23044 4409,23044 Z M 4386,22164 L 4386,23021 3749,23021 3749,22320 4019,22164 4386,22164 Z" stroke="none"/>
     <path fill="rgb(210,210,210)" d="M 4386,23021 L 4386,22164 4019,22164 4446,21917 4446,23770 3749,24173 3749,23021 4386,23021 Z M 4364,22186 L 4364,22999 3749,22999 3749,22320 3981,22186 4364,22186 Z" stroke="none"/>
     <path fill="rgb(211,211,211)" d="M 4364,22999 L 4364,22186 3981,22186 4446,21917 4446,23770 3749,24173 3749,22999 4364,22999 Z M 4341,22209 L 4341,22976 3749,22976 3749,22320 3941,22209 4341,22209 Z" stroke="none"/>
     <path fill="rgb(212,212,212)" d="M 4341,22976 L 4341,22209 3941,22209 4446,21917 4446,23770 3749,24173 3749,22976 4341,22976 Z M 4318,22232 L 4318,22953 3749,22953 3749,22320 3901,22232 4318,22232 Z" stroke="none"/>
     <path fill="rgb(213,213,213)" d="M 4318,22953 L 4318,22232 3901,22232 4446,21917 4446,23770 3749,24173 3749,22953 4318,22953 Z M 4296,22254 L 4296,22931 3749,22931 3749,22320 3863,22254 4296,22254 Z" stroke="none"/>
     <path fill="rgb(214,214,214)" d="M 4296,22931 L 4296,22254 3863,22254 4446,21917 4446,23770 3749,24173 3749,22931 4296,22931 Z M 4273,22277 L 4273,22908 3749,22908 3749,22320 3823,22277 4273,22277 Z" stroke="none"/>
     <path fill="rgb(215,215,215)" d="M 4273,22908 L 4273,22277 3823,22277 4446,21917 4446,23770 3749,24173 3749,22908 4273,22908 Z M 4251,22299 L 4251,22886 3749,22886 3749,22320 3785,22299 4251,22299 Z" stroke="none"/>
     <path fill="rgb(216,216,216)" d="M 4251,22886 L 4251,22299 3785,22299 4446,21917 4446,23770 3749,24173 3749,22886 4251,22886 Z M 4228,22322 L 4228,22863 3749,22863 3749,22322 4228,22322 Z" stroke="none"/>
     <path fill="rgb(217,217,217)" d="M 4228,22863 L 4228,22322 3749,22322 3749,22320 4446,21917 4446,23770 3749,24173 3749,22863 4228,22863 Z M 4205,22345 L 4205,22840 3749,22840 3749,22345 4205,22345 Z" stroke="none"/>
     <path fill="rgb(218,218,218)" d="M 4205,22840 L 4205,22345 3749,22345 3749,22320 4446,21917 4446,23770 3749,24173 3749,22840 4205,22840 Z M 4183,22367 L 4183,22818 3749,22818 3749,22367 4183,22367 Z" stroke="none"/>
     <path fill="rgb(219,219,219)" d="M 4183,22818 L 4183,22367 3749,22367 3749,22320 4446,21917 4446,23770 3749,24173 3749,22818 4183,22818 Z M 3755,22390 L 4160,22390 4160,22795 3755,22795 3755,22390 Z" stroke="none"/>
     <path fill="rgb(220,220,220)" d="M 3755,22390 L 3755,22795 4160,22795 4160,22390 3755,22390 Z M 3777,22412 L 4138,22412 4138,22773 3777,22773 3777,22412 Z M 3749,24173 L 3749,22320 4446,21917 4446,23770 3749,24173 Z" stroke="none"/>
     <path fill="rgb(221,221,221)" d="M 3777,22412 L 3777,22773 4138,22773 4138,22412 3777,22412 Z M 3800,22435 L 4115,22435 4115,22750 3800,22750 3800,22435 Z M 3749,24173 L 3749,22320 4446,21917 4446,23770 3749,24173 Z" stroke="none"/>
     <path fill="rgb(222,222,222)" d="M 3800,22435 L 3800,22750 4115,22750 4115,22435 3800,22435 Z M 3822,22457 L 4093,22457 4093,22728 3822,22728 3822,22457 Z M 3749,24173 L 3749,22320 4446,21917 4446,23770 3749,24173 Z" stroke="none"/>
     <path fill="rgb(223,223,223)" d="M 3822,22457 L 3822,22728 4093,22728 4093,22457 3822,22457 Z M 3845,22480 L 4070,22480 4070,22705 3845,22705 3845,22480 Z M 3749,24173 L 3749,22320 4446,21917 4446,23770 3749,24173 Z" stroke="none"/>
     <path fill="rgb(224,224,224)" d="M 3845,22480 L 3845,22705 4070,22705 4070,22480 3845,22480 Z M 3868,22503 L 4047,22503 4047,22682 3868,22682 3868,22503 Z M 3749,24173 L 3749,22320 4446,21917 4446,23770 3749,24173 Z" stroke="none"/>
     <path fill="rgb(225,225,225)" d="M 3868,22503 L 3868,22682 4047,22682 4047,22503 3868,22503 Z M 3890,22525 L 4025,22525 4025,22660 3890,22660 3890,22525 Z M 3749,24173 L 3749,22320 4446,21917 4446,23770 3749,24173 Z" stroke="none"/>
     <path fill="rgb(226,226,226)" d="M 3890,22525 L 3890,22660 4025,22660 4025,22525 3890,22525 Z M 3913,22548 L 4002,22548 4002,22637 3913,22637 3913,22548 Z M 3749,24173 L 3749,22320 4446,21917 4446,23770 3749,24173 Z" stroke="none"/>
     <path fill="rgb(227,227,227)" d="M 3913,22548 L 3913,22637 4002,22637 4002,22548 3913,22548 Z M 3935,22570 L 3980,22570 3980,22615 3935,22615 3935,22570 Z M 3749,24173 L 3749,22320 4446,21917 4446,23770 3749,24173 Z" stroke="none"/>
     <path fill="rgb(229,229,229)" d="M 3935,22570 L 3935,22615 3980,22615 3980,22570 3935,22570 Z M 3749,24173 L 3749,22320 4446,21917 4446,23770 3749,24173 Z" stroke="none"/>
     <path fill="none" stroke-linejoin="round" d="M 3749,24173 L 3749,22320 4446,21917 4446,23770 3749,24173 Z" id="svg1.Drawing_2_0" stroke="rgb(255,255,255)" xml:id="svg1.Drawing_2_0" stroke-width="40"/>
    </g>
    <g>
     <defs>
      <linearGradient x1="3609" x2="3609" gradientUnits="userSpaceOnUse" y1="21354" y2="22321" id="svg1.Gradient_1208" xml:id="svg1.Gradient_1208">
       <stop offset="0.1" stop-color="rgb(179,179,179)"/>
       <stop offset="1" stop-color="rgb(229,229,229)"/>
      </linearGradient>
     <clipPath clipPathUnits="userSpaceOnUse" id="clipPath1">
                      <path d="M0 0 L216 0 L216 444 L0 444 L0 0 Z"/>
                    </clipPath>
                    <clipPath clipPathUnits="userSpaceOnUse" id="clipPath2">
                      <path d="M-40 -29 L176 -29 L176 415 L-40 415 L-40 -29 Z"/>
                    </clipPath>
                    <clipPath clipPathUnits="userSpaceOnUse" id="clipPath3">
                      <path d="M-151.6649 -31.9079 L308.1192 -31.9079 L308.1192 912.567 L-151.6649 912.567 L-151.6649 -31.9079 Z"/>
                    </clipPath>
                    <clipPath clipPathUnits="userSpaceOnUse" id="clipPath4">
                      <path d="M-69.6385 -129.669 L146.3615 -129.669 L146.3615 314.331 L-69.6385 314.331 L-69.6385 -129.669 Z"/>
                    </clipPath>
                    <clipPath clipPathUnits="userSpaceOnUse" id="clipPath5">
                      <path d="M-55.9813 -350.2702 L157.3181 -350.2702 L157.3181 91.1546 L-55.9813 91.1546 L-55.9813 -350.2702 Z"/>
                    </clipPath>
                    <clipPath clipPathUnits="userSpaceOnUse" id="clipPath6">
                      <path d="M-72.4523 -225.458 L143.5477 -225.458 L143.5477 218.542 L-72.4523 218.542 L-72.4523 -225.458 Z"/>
                    </clipPath>
                  </defs>
     <path fill="url(#svg1.Gradient_1208)" stroke-linejoin="round" d="M 3749,22321 L 2773,21757 3470,21354 4445,21918 3749,22321 Z" id="svg1.Drawing_3_0" stroke="rgb(255,255,255)" xml:id="svg1.Drawing_3_0" stroke-width="40"/>
    </g>
    <g>
     <defs>
      <linearGradient x1="2771" x2="3751" gradientUnits="userSpaceOnUse" y1="22963" y2="22965" id="svg1.Gradient_1209" xml:id="svg1.Gradient_1209">
       <stop offset="0.1" stop-color="rgb(179,179,179)"/>
       <stop offset="1" stop-color="rgb(229,229,229)"/>
      </linearGradient>
     </defs>
     <path fill="url(#svg1.Gradient_1209)" stroke-linejoin="round" d="M 2773,23609 L 2773,21756 3749,22320 3749,24173 2773,23609 Z" id="svg1.Drawing_4_0" stroke="rgb(255,255,255)" xml:id="svg1.Drawing_4_0" stroke-width="40"/>
    </g>
    <g>
     <path fill="rgb(153,255,102)" d="M 3052,22482 L 3052,22240 3191,22321 3191,22562 3052,22482 Z" stroke="none"/>
     <path fill="none" stroke-linejoin="round" d="M 3052,22482 L 3052,22240 3191,22321 3191,22562 3052,22482 Z" id="svg1.Drawing_5_0" stroke="rgb(51,51,51)" xml:id="svg1.Drawing_5_0" stroke-width="40"/>
    </g>
    <g>
     <defs>
      <linearGradient x1="3608" x2="4305" gradientUnits="userSpaceOnUse" y1="21554" y2="21556" id="svg1.Gradient_1210" xml:id="svg1.Gradient_1210">
       <stop offset="0.1" stop-color="rgb(179,179,179)"/>
       <stop offset="1" stop-color="rgb(229,229,229)"/>
      </linearGradient>
     </defs>
     <path fill="url(#svg1.Gradient_1210)" stroke-linejoin="round" d="M 3609,21434 L 3609,21273 4306,21676 4306,21837 3609,21434 Z" id="svg1.Drawing_6_0" stroke="rgb(255,255,255)" xml:id="svg1.Drawing_6_0" stroke-width="40"/>
    </g>
    <g>
     <path fill="none" stroke-linejoin="round" d="M 2773,23609 L 2773,21756 3470,21354 3609,21434 3609,21273 4306,21676 4306,21837 4445,21917 4445,23770 3749,24173 2773,23609 Z" id="svg1.Drawing_7_0" stroke="rgb(0,0,0)" xml:id="svg1.Drawing_7_0" stroke-width="40"/>
    </g>
    <g>
     <path fill="rgb(204,204,204)" d="M 3191,21756 L 3191,19823 3330,19823 3330,21756 3191,21756 Z" stroke="none"/>
     <path fill="none" stroke-linejoin="round" d="M 3191,21756 L 3191,19823 3330,19823 3330,21756 3191,21756 Z" id="svg1.Drawing_8_0" stroke="rgb(0,0,0)" xml:id="svg1.Drawing_8_0" stroke-width="40"/>
    </g>
    <g>
     <path fill="rgb(0,0,0)" d="M 3330,23690 L 3330,23448 3469,23529 3469,23770 3330,23690 Z" stroke="none"/>
     <path fill="none" stroke-linejoin="round" d="M 3330,23690 L 3330,23448 3469,23529 3469,23770 3330,23690 Z" id="svg1.Drawing_9_0" stroke="rgb(102,102,102)" xml:id="svg1.Drawing_9_0" stroke-width="40"/>
    </g>
   </g>
  </g>
 </g>
</svg>
      </g>
    </g>
    <g text-rendering="geometricPrecision" stroke-miterlimit="1.45" shape-rendering="geometricPrecision" font-family="sans-serif" transform="matrix(1,0,0,1,40,29)" stroke-linecap="butt">
      <text x="74.75" xml:space="preserve" y="29.7139" clip-path="url(#clipPath2)" stroke="none">Arduino</text>
    </g>
    <g text-rendering="geometricPrecision" shape-rendering="geometricPrecision" transform="matrix(1,0,0,1,69.6385,129.669)">
      <g clip-path="url(#clipPath4)">
        <svg xml:space="preserve" opacity="1" writing-mode="lr-tb" stop-color="rgb(0, 0, 0)" shape-rendering="auto" glyph-orientation-horizontal="0deg" color-profile="auto" lighting-color="rgb(255, 255, 255)" color="rgb(0, 0, 0)" font-weight="400" alignment-baseline="auto" font-style="normal" version="1.1" color-interpolation-filters="linearrgb" text-anchor="start" stroke-linecap="butt" color-interpolation="srgb" font-variant="normal" word-spacing="normal" fill-opacity="1" text-rendering="auto" clip-path="none" text-decoration="none" letter-spacing="normal" viewBox="-0.875 -0.887 41 48" glyph-orientation-vertical="auto" display="inline" font-size-adjust="none" overflow="hidden" fill="rgb(0, 0, 0)" font-stretch="normal" stroke-dasharray="none" stroke-miterlimit="4" stop-opacity="1" color-rendering="auto" font-size="12" pointer-events="visiblepainted" mask="none" direction="ltr" baseline-shift="baseline" enable-background="new -0.875 -0.887 41 48" fill-rule="nonzero" image-rendering="auto" stroke-dashoffset="0" width="41px" marker-end="none" clip="auto" cursor="auto" stroke="none" filter="none" visibility="visible" kerning="auto" stroke-width="1" font-family="&quot;Arial&quot;,&quot;Helvetica&quot;,sans-serif" flood-opacity="1" clip-rule="nonzero" src="none" height="48px" unicode-bidi="normal" stroke-linejoin="miter" stroke-opacity="1" flood-color="rgb(0, 0, 0)" dominant-baseline="auto" marker-start="none" x="0px" marker-mid="none" y="0px">
<defs>
</defs>
<linearGradient gradientTransform="matrix(1 0 0 -1 -642.8008 -939.4756)" x1="642.8008" x2="682.0508" gradientUnits="userSpaceOnUse" y1="-979.1445" y2="-979.1445" id="svg2.SVGID_1_">
	<stop offset="0" style="stop-color:#3C89C9"/>
	<stop offset="0.1482" style="stop-color:#60A6DD"/>
	<stop offset="0.3113" style="stop-color:#81C1F0"/>
	<stop offset="0.4476" style="stop-color:#95D1FB"/>
	<stop offset="0.5394" style="stop-color:#9CD7FF"/>
	<stop offset="0.636" style="stop-color:#98D4FD"/>
	<stop offset="0.7293" style="stop-color:#8DCAF6"/>
	<stop offset="0.8214" style="stop-color:#79BBEB"/>
	<stop offset="0.912" style="stop-color:#5EA5DC"/>
	<stop offset="1" style="stop-color:#3C89C9"/>
</linearGradient>
<path fill="url(#svg2.SVGID_1_)" d="M19.625,36.763C8.787,36.763,0,34.888,0,32.575v10c0,2.313,8.787,4.188,19.625,4.188  c10.839,0,19.625-1.875,19.625-4.188v-10C39.25,34.888,30.464,36.763,19.625,36.763z"/>
<linearGradient gradientTransform="matrix(1 0 0 -1 -642.8008 -939.4756)" x1="642.8008" x2="682.0508" gradientUnits="userSpaceOnUse" y1="-973.1445" y2="-973.1445" id="svg2.SVGID_2_">
	<stop offset="0" style="stop-color:#9CD7FF"/>
	<stop offset="0.0039" style="stop-color:#9DD7FF"/>
	<stop offset="0.2273" style="stop-color:#BDE5FF"/>
	<stop offset="0.4138" style="stop-color:#D1EEFF"/>
	<stop offset="0.5394" style="stop-color:#D9F1FF"/>
	<stop offset="0.6155" style="stop-color:#D5EFFE"/>
	<stop offset="0.6891" style="stop-color:#C9E7FA"/>
	<stop offset="0.7617" style="stop-color:#B6DAF3"/>
	<stop offset="0.8337" style="stop-color:#9AC8EA"/>
	<stop offset="0.9052" style="stop-color:#77B0DD"/>
	<stop offset="0.9754" style="stop-color:#4D94CF"/>
	<stop offset="1" style="stop-color:#3C89C9"/>
</linearGradient>
<path fill="url(#svg2.SVGID_2_)" d="M19.625,36.763c10.839,0,19.625-1.875,19.625-4.188l-1.229-2c0,2.168-8.235,3.927-18.396,3.927  c-9.481,0-17.396-1.959-18.396-3.927l-1.229,2C0,34.888,8.787,36.763,19.625,36.763z"/>
<path fill="#3C89C9" d="M19.625,26.468c10.16,0,19.625,2.775,19.625,2.775c-0.375,2.721-5.367,5.438-19.554,5.438  c-12.125,0-18.467-2.484-19.541-4.918C-0.127,29.125,9.465,26.468,19.625,26.468z"/>
<linearGradient gradientTransform="matrix(1 0 0 -1 -642.8008 -939.4756)" x1="642.8008" x2="682.0508" gradientUnits="userSpaceOnUse" y1="-965.6948" y2="-965.6948" id="svg2.SVGID_3_">
	<stop offset="0" style="stop-color:#3C89C9"/>
	<stop offset="0.1482" style="stop-color:#60A6DD"/>
	<stop offset="0.3113" style="stop-color:#81C1F0"/>
	<stop offset="0.4476" style="stop-color:#95D1FB"/>
	<stop offset="0.5394" style="stop-color:#9CD7FF"/>
	<stop offset="0.636" style="stop-color:#98D4FD"/>
	<stop offset="0.7293" style="stop-color:#8DCAF6"/>
	<stop offset="0.8214" style="stop-color:#79BBEB"/>
	<stop offset="0.912" style="stop-color:#5EA5DC"/>
	<stop offset="1" style="stop-color:#3C89C9"/>
</linearGradient>
<path fill="url(#svg2.SVGID_3_)" d="M19.625,23.313C8.787,23.313,0,21.438,0,19.125v10c0,2.313,8.787,4.188,19.625,4.188  c10.839,0,19.625-1.875,19.625-4.188v-10C39.25,21.438,30.464,23.313,19.625,23.313z"/>
<linearGradient gradientTransform="matrix(1 0 0 -1 -642.8008 -939.4756)" x1="642.8008" x2="682.0508" gradientUnits="userSpaceOnUse" y1="-959.6948" y2="-959.6948" id="svg2.SVGID_4_">
	<stop offset="0" style="stop-color:#9CD7FF"/>
	<stop offset="0.0039" style="stop-color:#9DD7FF"/>
	<stop offset="0.2273" style="stop-color:#BDE5FF"/>
	<stop offset="0.4138" style="stop-color:#D1EEFF"/>
	<stop offset="0.5394" style="stop-color:#D9F1FF"/>
	<stop offset="0.6155" style="stop-color:#D5EFFE"/>
	<stop offset="0.6891" style="stop-color:#C9E7FA"/>
	<stop offset="0.7617" style="stop-color:#B6DAF3"/>
	<stop offset="0.8337" style="stop-color:#9AC8EA"/>
	<stop offset="0.9052" style="stop-color:#77B0DD"/>
	<stop offset="0.9754" style="stop-color:#4D94CF"/>
	<stop offset="1" style="stop-color:#3C89C9"/>
</linearGradient>
<path fill="url(#svg2.SVGID_4_)" d="M19.625,23.313c10.839,0,19.625-1.875,19.625-4.188l-1.229-2c0,2.168-8.235,3.926-18.396,3.926  c-9.481,0-17.396-1.959-18.396-3.926l-1.229,2C0,21.438,8.787,23.313,19.625,23.313z"/>
<path fill="#3C89C9" d="M19.476,13.019c10.161,0,19.625,2.775,19.625,2.775c-0.375,2.721-5.367,5.438-19.555,5.438  c-12.125,0-18.467-2.485-19.541-4.918C-0.277,15.674,9.316,13.019,19.476,13.019z"/>
<linearGradient gradientTransform="matrix(1 0 0 -1 -642.8008 -939.4756)" x1="642.8008" x2="682.0508" gradientUnits="userSpaceOnUse" y1="-952.4946" y2="-952.4946" id="svg2.SVGID_5_">
	<stop offset="0" style="stop-color:#3C89C9"/>
	<stop offset="0.1482" style="stop-color:#60A6DD"/>
	<stop offset="0.3113" style="stop-color:#81C1F0"/>
	<stop offset="0.4476" style="stop-color:#95D1FB"/>
	<stop offset="0.5394" style="stop-color:#9CD7FF"/>
	<stop offset="0.636" style="stop-color:#98D4FD"/>
	<stop offset="0.7293" style="stop-color:#8DCAF6"/>
	<stop offset="0.8214" style="stop-color:#79BBEB"/>
	<stop offset="0.912" style="stop-color:#5EA5DC"/>
	<stop offset="1" style="stop-color:#3C89C9"/>
</linearGradient>
<path fill="url(#svg2.SVGID_5_)" d="M19.625,10.113C8.787,10.113,0,8.238,0,5.925v10c0,2.313,8.787,4.188,19.625,4.188  c10.839,0,19.625-1.875,19.625-4.188v-10C39.25,8.238,30.464,10.113,19.625,10.113z"/>
<linearGradient gradientTransform="matrix(1 0 0 -1 -642.8008 -939.4756)" x1="642.8008" x2="682.0508" gradientUnits="userSpaceOnUse" y1="-946.4946" y2="-946.4946" id="svg2.SVGID_6_">
	<stop offset="0" style="stop-color:#9CD7FF"/>
	<stop offset="0.0039" style="stop-color:#9DD7FF"/>
	<stop offset="0.2273" style="stop-color:#BDE5FF"/>
	<stop offset="0.4138" style="stop-color:#D1EEFF"/>
	<stop offset="0.5394" style="stop-color:#D9F1FF"/>
	<stop offset="0.6155" style="stop-color:#D5EFFE"/>
	<stop offset="0.6891" style="stop-color:#C9E7FA"/>
	<stop offset="0.7617" style="stop-color:#B6DAF3"/>
	<stop offset="0.8337" style="stop-color:#9AC8EA"/>
	<stop offset="0.9052" style="stop-color:#77B0DD"/>
	<stop offset="0.9754" style="stop-color:#4D94CF"/>
	<stop offset="1" style="stop-color:#3C89C9"/>
</linearGradient>
<path fill="url(#svg2.SVGID_6_)" d="M19.625,10.113c10.839,0,19.625-1.875,19.625-4.188l-1.229-2c0,2.168-8.235,3.926-18.396,3.926  c-9.481,0-17.396-1.959-18.396-3.926L0,5.925C0,8.238,8.787,10.113,19.625,10.113z"/>
<linearGradient gradientTransform="matrix(1 0 0 -1 -642.8008 -939.4756)" x1="644.0293" x2="680.8223" gradientUnits="userSpaceOnUse" y1="-943.4014" y2="-943.4014" id="svg2.SVGID_7_">
	<stop offset="0" style="stop-color:#9CD7FF"/>
	<stop offset="1" style="stop-color:#3C89C9"/>
</linearGradient>
<ellipse rx="18.396" fill="url(#svg2.SVGID_7_)" ry="3.926" cx="19.625" cy="3.926"/>
<path fill="#FFFFFF" d="M31.04,45.982c0,0-4.354,0.664-7.29,0.781  c-3.125,0.125-8.952,0-8.952,0l-2.384-10.292l0.044-2.108l-1.251-1.154L9.789,23.024l-0.082-0.119L9.5,20.529l-1.65-1.254  L5.329,8.793c0,0,4.213,0.903,7.234,1.07s8.375,0.25,8.375,0.25l3,9.875l-0.25,1.313l1.063,2.168l2.312,9.645l-0.521,1.416  l1.46,1.834L31.04,45.982z" enable-background="new    " opacity="0.24"/>
</svg>
      </g>
    </g>
    <g text-rendering="geometricPrecision" stroke-miterlimit="1.45" shape-rendering="geometricPrecision" font-family="sans-serif" transform="matrix(1,0,0,1,40,29)" stroke-linecap="butt">
      <text x="4.9824" xml:space="preserve" y="129.7139" clip-path="url(#clipPath2)" stroke="none">MongoDB server</text>
    </g>
    <g text-rendering="geometricPrecision" shape-rendering="geometricPrecision" transform="matrix(1.0127,0,0,1.0058,56.69,352.3136)">
      <g clip-path="url(#clipPath5)">
        <svg xml:space="preserve" opacity="1" writing-mode="lr-tb" stop-color="rgb(0, 0, 0)" shape-rendering="auto" glyph-orientation-horizontal="0deg" color-profile="auto" lighting-color="rgb(255, 255, 255)" color="rgb(0, 0, 0)" font-weight="400" alignment-baseline="auto" font-style="normal" version="1.1" color-interpolation-filters="linearrgb" text-anchor="start" stroke-linecap="butt" color-interpolation="srgb" font-variant="normal" word-spacing="normal" fill-opacity="1" text-rendering="auto" clip-path="none" text-decoration="none" letter-spacing="normal" viewBox="-0.811 -0.063 65 53" glyph-orientation-vertical="auto" display="inline" font-size-adjust="none" overflow="hidden" fill="rgb(0, 0, 0)" font-stretch="normal" stroke-dasharray="none" stroke-miterlimit="4" stop-opacity="1" color-rendering="auto" font-size="12" pointer-events="visiblepainted" mask="none" direction="ltr" baseline-shift="baseline" enable-background="new -0.811 -0.063 65 53" fill-rule="nonzero" image-rendering="auto" stroke-dashoffset="0" width="65px" marker-end="none" clip="auto" cursor="auto" stroke="none" filter="none" visibility="visible" kerning="auto" stroke-width="1" font-family="&quot;Arial&quot;,&quot;Helvetica&quot;,sans-serif" flood-opacity="1" clip-rule="nonzero" src="none" height="53px" unicode-bidi="normal" stroke-linejoin="miter" stroke-opacity="1" flood-color="rgb(0, 0, 0)" dominant-baseline="auto" marker-start="none" x="0px" marker-mid="none" y="0px">
<defs>
</defs>
<linearGradient gradientTransform="matrix(1 0 0 1 -195.2002 -770.8008)" x1="220.9624" x2="220.9624" gradientUnits="userSpaceOnUse" y1="824.415" y2="801.0922" id="svg3.SVGID_1_">
	<stop offset="0.0319" style="stop-color:#808080"/>
	<stop offset="0.1229" style="stop-color:#939393"/>
	<stop offset="0.2702" style="stop-color:#ABABAB"/>
	<stop offset="0.4266" style="stop-color:#BCBCBC"/>
	<stop offset="0.5968" style="stop-color:#C6C6C6"/>
	<stop offset="0.8061" style="stop-color:#C9C9C9"/>
</linearGradient>
<path fill="url(#svg3.SVGID_1_)" d="M51.333,51.918c0.195,0.459-0.053,0.836-0.553,0.836H0.58c-0.5,0-0.604-0.272-0.232-0.605  l8.023-7.191c0.373-0.334,1.086-0.605,1.586-0.605h37.255c0.498,0,1.065,0.377,1.265,0.836L51.333,51.918z"/>
<path stroke-linecap="round" fill="none" stroke-linejoin="round" d="  M51.333,51.918c0.195,0.459-0.053,0.836-0.553,0.836H0.58c-0.5,0-0.604-0.272-0.232-0.605l8.023-7.191  c0.373-0.334,1.086-0.605,1.586-0.605h37.255c0.498,0,1.065,0.377,1.265,0.836L51.333,51.918z" stroke="#8D8D8D" stroke-width="0.25" stroke-miterlimit="10"/>
<path fill="#717171" d="M32.117,50.571c0,0.25-0.205,0.454-0.455,0.454H4.024c-0.25,0-0.304-0.139-0.119-0.307l5.638-5.154  c0.184-0.17,0.539-0.309,0.789-0.309h21.332c0.25,0,0.454,0.205,0.454,0.455L32.117,50.571L32.117,50.571z"/>
<path fill="#717171" d="M40.738,50.598c0.086,0.236,0.359,0.428,0.609,0.428h7.465c0.25,0,0.375-0.188,0.279-0.42l-2.049-4.93  c-0.098-0.229-0.379-0.42-0.629-0.42h-7.17c-0.25,0-0.386,0.191-0.301,0.428L40.738,50.598z"/>
<path fill="#717171" d="M32.89,50.571c0,0.25,0.205,0.454,0.455,0.454h6.135c0.25,0,0.382-0.189,0.293-0.426l-0.156-0.409  c-0.089-0.233-0.365-0.421-0.615-0.416l-1.045,0.021c-0.25,0.004-0.509-0.189-0.574-0.432l-0.021-0.082  c-0.065-0.242-0.321-0.439-0.571-0.439h-1.316c-0.25,0-0.444,0.205-0.432,0.453l0.002,0.059c0.016,0.25-0.181,0.455-0.431,0.459  l-1.269,0.021c-0.25,0.006-0.454,0.211-0.454,0.461L32.89,50.571L32.89,50.571z"/>
<path fill="#717171" d="M32.89,47.004c0,0.25,0.205,0.455,0.455,0.455h4.845c0.25,0,0.396-0.195,0.323-0.437l-0.402-1.333  c-0.07-0.238-0.335-0.438-0.585-0.438h-4.181c-0.25,0-0.455,0.205-0.455,0.455V47.004z"/>
<linearGradient gradientTransform="matrix(1 0 0 -1 -488 -1376.627)" x1="535.2017" x2="511.4634" gradientUnits="userSpaceOnUse" y1="-1418.6563" y2="-1418.6563" id="svg3.SVGID_2_">
	<stop offset="0" style="stop-color:#4D4D4D"/>
	<stop offset="1" style="stop-color:#999999"/>
</linearGradient>
<path fill="url(#svg3.SVGID_2_)" d="M47.048,40.514c0,0.965-6.758,1.404-12.371,1.404c-3.889,0-10.914-0.348-11.367-1.267  c0,0.446,0,1.502,0,1.661c0,0.725,4.803,1.234,11.357,1.234c6.554,0,12.381-0.643,12.381-1.361  C47.048,42.028,47.048,40.977,47.048,40.514z"/>
<path fill="#808080" d="M35.179,39.307c6.556,0,11.869,0.584,11.869,1.307c0,0.721-5.313,1.42-11.869,1.42  c-6.701,0-11.869-0.697-11.869-1.42S28.625,39.307,35.179,39.307z"/>
<linearGradient gradientTransform="matrix(1 0 0 -1 -488 -1376.627)" x1="525.7661" x2="520.77" gradientUnits="userSpaceOnUse" y1="-1412.6865" y2="-1412.6865" id="svg3.SVGID_3_">
	<stop offset="0" style="stop-color:#999999"/>
	<stop offset="0.0417" style="stop-color:#8D8D8D"/>
	<stop offset="0.1617" style="stop-color:#717171"/>
	<stop offset="0.2821" style="stop-color:#5D5D5D"/>
	<stop offset="0.4021" style="stop-color:#515151"/>
	<stop offset="0.5212" style="stop-color:#4D4D4D"/>
	<stop offset="0.6202" style="stop-color:#565656"/>
	<stop offset="0.7817" style="stop-color:#6E6E6E"/>
	<stop offset="0.9844" style="stop-color:#969696"/>
	<stop offset="1" style="stop-color:#999999"/>
</linearGradient>
<path fill="url(#svg3.SVGID_3_)" d="M37.734,40.896c0,0-1.477,0.096-2.498,0.096s-2.499-0.096-2.499-0.096v-9.768h4.997V40.896z"/>
<radialGradient gradientTransform="matrix(1.15 0 0 -1 -453.4719 -1376.627)" id="svg3.SVGID_4_" r="24.0778" cx="415.8687" gradientUnits="userSpaceOnUse" cy="-1386.5146">
	<stop offset="0" style="stop-color:#F2F2F2"/>
	<stop offset="1" style="stop-color:#666666"/>
</radialGradient>
<path fill="url(#svg3.SVGID_4_)" d="M9.453,2.122c0-1.1,0.9-2,2-2h48.246c1.1,0,2,0.9,2,2v30.073c0,1.101-0.9,2-2,2H11.453  c-1.1,0-2-0.899-2-2V2.122z"/>
<path stroke-linecap="round" fill="none" stroke-linejoin="round" d="  M9.453,2.122c0-1.1,0.9-2,2-2h48.246c1.1,0,2,0.9,2,2v30.073c0,1.101-0.9,2-2,2H11.453c-1.1,0-2-0.899-2-2V2.122z" stroke="#666666" stroke-width="0.2436" stroke-miterlimit="10"/>
<radialGradient gradientTransform="matrix(1.1935 0 0 -1 -443.5655 -1376.627)" gradientUnits="userSpaceOnUse" r="53.3339" cx="402.1509" id="svg3.SVGID_5_" cy="-1378.3662" fx="444.1083" fy="-1385.5538">
	<stop offset="0" style="stop-color:#4D4D4D"/>
	<stop offset="1" style="stop-color:#999999"/>
</radialGradient>
<path fill="url(#svg3.SVGID_5_)" d="M10.475,3.143c0-1.1,0.9-2,2-2h46.429c1.1,0,2,0.9,2,2v27.805c0,1.1-0.9,2-2,2H12.475  c-1.1,0-2-0.9-2-2V3.143z"/>
<radialGradient gradientTransform="matrix(1.1923 0 0 -1 -443.8286 -1376.627)" id="svg3.SVGID_6_" r="34.1874" cx="402.939" gradientUnits="userSpaceOnUse" cy="-1378.4502">
	<stop offset="0" style="stop-color:#9CD7FF"/>
	<stop offset="1" style="stop-color:#3C89C9"/>
</radialGradient>
<path fill="url(#svg3.SVGID_6_)" d="M11.043,3.598c0-1.1,0.9-2,2-2h45.294c1.1,0,2,0.9,2,2v26.895c0,1.1-0.9,2-2,2H13.043  c-1.1,0-2-0.9-2-2V3.598z"/>
<path fill="#F2F2F2" opacity="0.24" d="M11.043,24.936V3.598c0-1.1,0.9-2,2-2h45.294c1.1,0,2,0.9,2,2v13.539l-23.164,4.94  c-1.064,0.273-2.836,0.547-3.935,0.609L11.043,24.936z"/>
<path fill="#C9C9C9" d="M58.777,46.596c-0.003-0.002-0.005-0.002-0.007,0c-0.188-0.061-0.429-0.254-0.702-0.482  C58.335,46.268,58.578,46.436,58.777,46.596z"/>
<radialGradient gradientTransform="matrix(1 0 0 1 -390.4004 -1211.6016)" id="svg3.SVGID_7_" r="6.3766" cx="450.8638" gradientUnits="userSpaceOnUse" cy="1259.1514">
	<stop offset="0.1939" style="stop-color:#C9C9C9"/>
	<stop offset="0.3299" style="stop-color:#C6C6C6"/>
	<stop offset="0.4405" style="stop-color:#BCBCBC"/>
	<stop offset="0.5421" style="stop-color:#ABABAB"/>
	<stop offset="0.6378" style="stop-color:#939393"/>
	<stop offset="0.697" style="stop-color:#808080"/>
</radialGradient>
<path fill="url(#svg3.SVGID_7_)" d="M58.77,46.596c0.005,0.002,0.007,0.002,0.009,0.002c0.002,0.004,0.006,0.004,0.006,0.004  c0.084,0.023,0.153,0.021,0.213-0.021c0.017-0.008,0.026-0.021,0.037-0.041c0.604-0.119,1.329-0.154,2.197-0.086  c2.032,1.545,3.77,4.625,1.18,5.801c-2.048,0.929-3.543,0.783-4.722-0.485c-0.624-0.675-1.239-1.47-1.729-2.265  C56.226,48.369,56.855,47.061,58.77,46.596z"/>
<radialGradient gradientTransform="matrix(0.9761 0.2173 -0.1478 0.6641 -320.0412 -1031.1759)" id="svg3.SVGID_8_" r="3.8245" cx="603.5698" gradientUnits="userSpaceOnUse" cy="1426.6348">
	<stop offset="0.1939" style="stop-color:#C9C9C9"/>
	<stop offset="0.3739" style="stop-color:#C6C6C6"/>
	<stop offset="0.5203" style="stop-color:#BCBCBC"/>
	<stop offset="0.6549" style="stop-color:#ABABAB"/>
	<stop offset="0.7816" style="stop-color:#939494"/>
	<stop offset="0.8364" style="stop-color:#868787"/>
</radialGradient>
<path fill="url(#svg3.SVGID_8_)" d="M55.96,49.504c-0.893-1.438-1.355-2.869-0.664-3.533c0.244-0.236,0.539-0.422,0.863-0.559  c0.6,0.051,1.307,0.346,1.9,0.691c0.002,0,0.005,0.004,0.007,0.006c0.272,0.229,0.519,0.426,0.702,0.482  C56.855,47.061,56.226,48.369,55.96,49.504z"/>
<radialGradient gradientTransform="matrix(1 0 0 1 -390.4004 -1211.6016)" id="svg3.SVGID_9_" r="3.928" cx="448.7241" gradientUnits="userSpaceOnUse" cy="1259.3271">
	<stop offset="0.1939" style="stop-color:#C9C9C9"/>
	<stop offset="0.3496" style="stop-color:#C6C6C6"/>
	<stop offset="0.4761" style="stop-color:#BCBCBC"/>
	<stop offset="0.5925" style="stop-color:#ABABAB"/>
	<stop offset="0.702" style="stop-color:#939393"/>
	<stop offset="0.7697" style="stop-color:#808080"/>
</radialGradient>
<path fill="url(#svg3.SVGID_9_)" d="M56.16,45.414c1.353-0.564,3.287-0.266,4.963,0.955c0.035,0.025,0.073,0.055,0.109,0.084  c-0.867-0.068-1.818-0.033-2.427,0.086c-0.109-0.105-0.763-0.449-0.744-0.434C57.464,45.758,56.757,45.463,56.16,45.414z"/>
<path fill="none" stroke-width="0.1136" d="M56.16,45.414  c1.353-0.564,3.287-0.266,4.963,0.955c0.035,0.025,0.073,0.055,0.109,0.084c2.032,1.545,3.77,4.627,1.18,5.801  c-2.048,0.93-3.543,0.785-4.722-0.484c-0.624-0.676-1.239-1.471-1.729-2.264c-0.892-1.438-1.354-2.871-0.664-3.533  C55.541,45.734,55.835,45.549,56.16,45.414z" stroke-miterlimit="10" stroke="#717171" stroke-linecap="round"/>
<path fill="none" stroke-width="0.1136" d="M58.777,46.596  c0.083-0.021,0.168-0.041,0.258-0.057c0.604-0.119,1.329-0.154,2.197-0.086" stroke-miterlimit="10" stroke="#717171" stroke-linecap="round"/>
<path fill="none" stroke-width="0.1136" d="M55.958,49.516  c0-0.002,0.002-0.008,0.002-0.012c0.269-1.135,0.896-2.441,2.813-2.908" stroke-miterlimit="10" stroke="#717171" stroke-linecap="round"/>
<path fill="none" stroke-width="0.1136" d="M58.061,46.105  c-0.597-0.35-1.306-0.643-1.901-0.693" stroke-miterlimit="10" stroke="#717171" stroke-linecap="round"/>
<path fill="none" stroke-width="0.1136" d="M58.779,46.598  c0-0.002,0-0.002-0.002-0.002c-0.199-0.16-0.441-0.328-0.709-0.482" stroke-miterlimit="10" stroke="#717171" stroke-linecap="round"/>
<path fill="#4D4D4D" d="M58.259,45.936c0.354,0.264,0.438,0.48,0.548,0.604c-0.091,0.018-0.173,0.033-0.259,0.059  c-0.355-0.393-0.996-0.666-0.955-0.727C57.688,45.729,58.063,45.791,58.259,45.936z"/>
</svg>
      </g>
    </g>
    <g text-rendering="geometricPrecision" stroke-miterlimit="1.45" shape-rendering="geometricPrecision" font-family="sans-serif" transform="matrix(1,0,0,1,40,29)" stroke-linecap="butt">
      <text x="8.6504" xml:space="preserve" y="394.6873" clip-path="url(#clipPath2)" stroke="none">Web client user</text>
    </g>
    <g text-rendering="geometricPrecision" shape-rendering="geometricPrecision" transform="matrix(1,0,0,1,72.4524,225.458)">
      <g clip-path="url(#clipPath6)">
        <svg xml:space="preserve" opacity="1" writing-mode="lr-tb" stop-color="rgb(0, 0, 0)" shape-rendering="auto" glyph-orientation-horizontal="0deg" color-profile="auto" lighting-color="rgb(255, 255, 255)" color="rgb(0, 0, 0)" font-weight="400" alignment-baseline="auto" font-style="normal" version="1.1" color-interpolation-filters="linearrgb" text-anchor="start" stroke-linecap="butt" color-interpolation="srgb" font-variant="normal" word-spacing="normal" fill-opacity="1" text-rendering="auto" clip-path="none" text-decoration="none" letter-spacing="normal" viewBox="0 -0.741 36 57" glyph-orientation-vertical="auto" display="inline" font-size-adjust="none" overflow="hidden" fill="rgb(0, 0, 0)" font-stretch="normal" stroke-dasharray="none" stroke-miterlimit="4" stop-opacity="1" color-rendering="auto" font-size="12" pointer-events="visiblepainted" mask="none" direction="ltr" baseline-shift="baseline" enable-background="new 0 -0.741 36 57" fill-rule="nonzero" image-rendering="auto" stroke-dashoffset="0" width="36px" marker-end="none" clip="auto" cursor="auto" stroke="none" filter="none" visibility="visible" kerning="auto" stroke-width="1" font-family="&quot;Arial&quot;,&quot;Helvetica&quot;,sans-serif" flood-opacity="1" clip-rule="nonzero" src="none" height="57px" unicode-bidi="normal" stroke-linejoin="miter" stroke-opacity="1" flood-color="rgb(0, 0, 0)" dominant-baseline="auto" marker-start="none" x="0px" marker-mid="none" y="0px">
<defs>
</defs>
<linearGradient gradientTransform="matrix(1 0 0 1 -195.2002 -770.8008)" x1="230.1768" x2="180.3346" gradientUnits="userSpaceOnUse" y1="798.6021" y2="798.6021" id="svg4.SVGID_1_">
	<stop offset="0" style="stop-color:#4D4D4D"/>
	<stop offset="1" style="stop-color:#8D8D8D"/>
</linearGradient>
<rect fill="url(#svg4.SVGID_1_)" width="34.977" y="0.943" height="53.716"/>
<linearGradient gradientTransform="matrix(1 0 0 1 -195.2002 -770.8008)" x1="224.6807" x2="200.6973" gradientUnits="userSpaceOnUse" y1="798.6021" y2="798.6021" id="svg4.SVGID_2_">
	<stop offset="0.0319" style="stop-color:#848484"/>
	<stop offset="0.1202" style="stop-color:#8C8C8C"/>
	<stop offset="0.308" style="stop-color:#969696"/>
	<stop offset="0.5394" style="stop-color:#999999"/>
	<stop offset="0.5501" style="stop-color:#9C9C9C"/>
	<stop offset="0.6256" style="stop-color:#B0B0B0"/>
	<stop offset="0.7118" style="stop-color:#BEBEBE"/>
	<stop offset="0.8178" style="stop-color:#C7C7C7"/>
	<stop offset="1" style="stop-color:#C9C9C9"/>
</linearGradient>
<path fill="url(#svg4.SVGID_2_)" d="M5.497,0.943c7.945-1.258,16.04-1.258,23.983,0c0,17.905,0,35.811,0,53.716  c-7.943,1.258-16.039,1.258-23.983,0C5.497,36.753,5.497,18.848,5.497,0.943z"/>
<path fill="#515151" d="M5.497,14.621c7.995,0,15.989,0,23.983,0c0,13.346,0,26.693,0,40.037c-7.943,1.258-16.039,1.258-23.983,0  C5.497,41.314,5.497,27.967,5.497,14.621z"/>
<path fill="#565656" opacity="0.43" d="M5.497,4.745c7.982-0.628,16.001-0.628,23.983,0c0,2.707,0,5.413,0,8.12  c-7.994,0-15.989,0-23.983,0C5.497,10.158,5.497,7.452,5.497,4.745z"/>
<path fill="none" stroke-width="0.0999" d="M5.497,4.745  c7.982-0.628,16.001-0.628,23.983,0c0,2.707,0,5.413,0,8.12c-7.994,0-15.989,0-23.983,0C5.497,10.158,5.497,7.452,5.497,4.745z" stroke-miterlimit="10" opacity="0.43" stroke="#4D4D4D"/>
<polygon enable-background="new    " points="  6.496,5.746 9.869,5.606 9.869,6.661 6.496,6.799 " fill="#565656" opacity="0.43" stroke="#4D4D4D" stroke-width="0.0135" stroke-miterlimit="10"/>
<rect x="31.307" y="2.517" fill="#E7ED00" width="3.692" height="1.505" stroke="#717171" stroke-width="0.1926" stroke-miterlimit="10"/>
<rect x="31.307" y="5.8" fill="#C8FF00" width="3.692" height="1.507" stroke="#717171" stroke-width="0.1926" stroke-miterlimit="10"/>
<linearGradient y2="35.1235" id="svg4.SVGID_3_" x1="29.4414" gradientUnits="userSpaceOnUse" x2="5.4995" y1="35.1235">
	<stop offset="0" style="stop-color:#808080"/>
	<stop offset="0.1907" style="stop-color:#828282"/>
	<stop offset="0.2955" style="stop-color:#8A8A8A"/>
	<stop offset="0.3795" style="stop-color:#989898"/>
	<stop offset="0.4524" style="stop-color:#ACACAC"/>
	<stop offset="0.5175" style="stop-color:#C5C5C5"/>
	<stop offset="0.5273" style="stop-color:#C9C9C9"/>
	<stop offset="0.5914" style="stop-color:#C9C9C9"/>
	<stop offset="0.9681" style="stop-color:#C9C9C9"/>
</linearGradient>
<path fill="url(#svg4.SVGID_3_)" d="M5.5,14.822c0,13.22,0,26.438,0,39.66c7.931,1.256,16.012,1.256,23.941,0c0-13.222,0-26.439,0-39.66  C21.461,14.822,13.48,14.822,5.5,14.822z M28.396,18.703c-0.74,0.01-1.482,0.02-2.225,0.029c0-0.951,0-1.901-0.001-2.85  c0.742-0.003,1.483-0.005,2.224-0.008C28.396,16.817,28.396,17.76,28.396,18.703z M16.354,42.496c0-0.961,0-1.924,0-2.885  c0.744,0.006,1.489,0.006,2.233,0c0,0.961,0,1.924,0,2.885C17.843,42.503,17.098,42.503,16.354,42.496z M18.587,43.568  c0,0.955,0,1.91,0,2.866c-0.744,0.009-1.489,0.009-2.234,0c0-0.956,0-1.911,0-2.866C17.098,43.574,17.843,43.574,18.587,43.568z   M18.586,27.742c0,0.961,0,1.922,0,2.886c-0.744,0.004-1.488,0.004-2.231,0c0-0.964,0-1.925,0-2.886  C17.099,27.746,17.842,27.746,18.586,27.742z M16.354,26.671c0-0.955,0-1.91,0-2.865c0.743,0.002,1.487,0.002,2.23,0  c0,0.955,0,1.91,0,2.865C17.842,26.675,17.099,26.675,16.354,26.671z M16.354,34.583c0-0.961,0-1.924,0-2.885  c0.744,0.004,1.488,0.004,2.231,0c0,0.961,0,1.924,0,2.885C17.842,34.588,17.099,34.588,16.354,34.583z M18.586,35.656  c0,0.961,0,1.924,0.001,2.885c-0.745,0.008-1.489,0.008-2.233,0c0-0.961,0-1.924,0-2.885C17.099,35.66,17.842,35.66,18.586,35.656z   M15.307,30.619c-0.742-0.01-1.484-0.021-2.227-0.039c0-0.957,0-1.916,0-2.875c0.742,0.014,1.485,0.023,2.226,0.029  C15.307,28.695,15.307,29.656,15.307,30.619z M15.307,31.689c0,0.961,0,1.924,0,2.885c-0.742-0.012-1.485-0.025-2.227-0.047  c0-0.959,0.001-1.92,0.001-2.877C13.822,31.667,14.565,31.68,15.307,31.689z M15.307,35.644c0,0.959,0,1.922-0.001,2.883  c-0.742-0.012-1.485-0.031-2.228-0.056c0-0.959,0.001-1.918,0.001-2.877C13.821,35.617,14.564,35.633,15.307,35.644z M15.306,39.597  c0,0.96,0,1.922,0,2.883c-0.742-0.016-1.486-0.037-2.228-0.064c0-0.959,0-1.916,0.001-2.877  C13.82,39.564,14.563,39.585,15.306,39.597z M19.637,39.597c0.742-0.012,1.484-0.033,2.227-0.059c0,0.959,0,1.918,0,2.875  c-0.741,0.029-1.483,0.052-2.227,0.064C19.637,41.519,19.637,40.559,19.637,39.597z M19.637,38.527c0-0.961,0-1.924,0-2.883  c0.74-0.012,1.482-0.027,2.225-0.05c0,0.959,0,1.918,0.002,2.876C21.121,38.496,20.377,38.515,19.637,38.527z M19.637,34.572  c0-0.961,0-1.922-0.002-2.883c0.741-0.01,1.483-0.021,2.225-0.039c0.002,0.957,0.002,1.916,0.002,2.875  C21.119,34.547,20.376,34.564,19.637,34.572z M19.635,30.619c0-0.963,0-1.924,0-2.885c0.74-0.006,1.483-0.017,2.225-0.029  c0,0.959,0,1.916,0,2.875C21.118,30.599,20.376,30.609,19.635,30.619z M19.633,26.666c0-0.955,0-1.909,0-2.864  c0.741-0.005,1.483-0.013,2.227-0.021c0,0.951,0,1.903,0,2.856C21.118,26.65,20.375,26.66,19.633,26.666z M19.633,22.732  c-0.001-0.963-0.001-1.924-0.001-2.885c0.741-0.002,1.483-0.006,2.226-0.012c0,0.959,0.002,1.918,0.002,2.877  C21.116,22.72,20.374,22.728,19.633,22.732z M18.586,22.736c-0.744,0.002-1.487,0.002-2.23,0c0-0.963,0-1.924,0-2.887  c0.743,0.002,1.487,0.002,2.23,0C18.586,20.813,18.586,21.773,18.586,22.736z M15.309,22.732c-0.742-0.004-1.483-0.012-2.226-0.02  c0-0.959,0.001-1.918,0.001-2.877c0.742,0.006,1.484,0.01,2.226,0.012C15.31,20.808,15.309,21.769,15.309,22.732z M15.309,23.801  c0,0.955,0,1.91,0,2.864c-0.742-0.006-1.483-0.016-2.227-0.027c0-0.953,0-1.906,0-2.859C13.825,23.789,14.566,23.796,15.309,23.801z   M12.036,26.617c-0.742-0.017-1.483-0.033-2.225-0.055c0-0.947,0-1.895,0.001-2.841c0.741,0.019,1.483,0.031,2.225,0.042  C12.037,24.716,12.036,25.666,12.036,26.617z M12.035,27.683c0,0.957,0,1.916,0,2.873c-0.742-0.021-1.483-0.047-2.225-0.076  c0-0.953,0-1.904,0-2.857C10.552,27.646,11.293,27.667,12.035,27.683z M12.035,31.621c0,0.957-0.001,1.914-0.001,2.871  c-0.742-0.023-1.483-0.055-2.224-0.092c0-0.953,0-1.906,0-2.859C10.551,31.572,11.292,31.6,12.035,31.621z M12.033,35.56  c0,0.956-0.001,1.914-0.001,2.871c-0.742-0.031-1.484-0.066-2.225-0.111c0-0.953,0.001-1.906,0.001-2.858  C10.549,35.5,11.291,35.533,12.033,35.56z M12.031,39.498c0,0.955,0,1.914-0.001,2.869c-0.742-0.035-1.484-0.078-2.225-0.129  c0-0.953,0-1.904,0.001-2.857C10.547,39.426,11.289,39.465,12.031,39.498z M12.03,43.435c0,0.951-0.001,1.901-0.001,2.854  c-0.742-0.041-1.484-0.09-2.225-0.149c0-0.944,0.001-1.892,0.001-2.838C10.546,43.353,11.288,43.4,12.03,43.435z M13.077,43.482  c0.743,0.031,1.486,0.053,2.228,0.067c0,0.956,0,1.91,0,2.864c-0.742-0.016-1.486-0.041-2.229-0.074  C13.077,45.389,13.077,44.435,13.077,43.482z M15.305,47.486c0,0.961,0,1.922,0,2.883c-0.743-0.019-1.487-0.047-2.23-0.084  c0-0.959,0-1.918,0.001-2.875C13.818,47.443,14.562,47.468,15.305,47.486z M16.353,47.504c0.745,0.009,1.49,0.009,2.234,0  c0.001,0.96,0.001,1.924,0.001,2.883c-0.745,0.011-1.49,0.011-2.235,0C16.353,49.427,16.353,48.464,16.353,47.504z M19.639,47.486  c0.741-0.018,1.483-0.043,2.227-0.076c0,0.957,0.002,1.916,0.002,2.875c-0.742,0.037-1.486,0.065-2.229,0.084  C19.639,49.406,19.639,48.447,19.639,47.486z M19.637,46.414c0-0.954,0-1.908,0-2.864c0.742-0.015,1.484-0.036,2.229-0.067  c0,0.953,0,1.905,0,2.857C21.122,46.373,20.379,46.398,19.637,46.414z M22.911,43.435c0.741-0.035,1.483-0.082,2.224-0.135  c0,0.945,0,1.895,0.002,2.838c-0.74,0.059-1.482,0.107-2.226,0.15C22.911,45.336,22.911,44.386,22.911,43.435z M22.911,42.369  c-0.001-0.957-0.001-1.914-0.002-2.871c0.741-0.032,1.483-0.069,2.225-0.117c0,0.954,0.001,1.906,0.001,2.857  C24.395,42.289,23.652,42.333,22.911,42.369z M22.909,38.431c0-0.957-0.001-1.915-0.001-2.871c0.742-0.027,1.482-0.061,2.224-0.098  c0.001,0.951,0.001,1.904,0.001,2.857C24.393,38.363,23.65,38.4,22.909,38.431z M22.908,34.494c0-0.957-0.002-1.916-0.002-2.871  c0.742-0.021,1.482-0.051,2.225-0.079c0,0.952,0,1.903,0.001,2.856C24.391,34.437,23.648,34.468,22.908,34.494z M22.906,30.556  c0-0.957,0-1.916-0.002-2.873c0.742-0.016,1.484-0.037,2.226-0.061c0,0.953,0.001,1.904,0.001,2.857  C24.391,30.509,23.648,30.535,22.906,30.556z M22.904,26.617c0-0.951,0-1.901,0-2.854c0.74-0.011,1.482-0.025,2.224-0.042  c0,0.946,0.001,1.894,0.001,2.841C24.389,26.583,23.646,26.601,22.904,26.617z M22.902,22.699c0-0.957,0-1.916,0-2.874  c0.742-0.007,1.482-0.014,2.225-0.023c0.001,0.953,0.001,1.906,0.001,2.859C24.387,22.676,23.646,22.689,22.902,22.699z   M22.902,18.76C22.9,17.802,22.9,16.845,22.9,15.887c0.742,0,1.481-0.003,2.225-0.004c0.001,0.953,0.001,1.906,0.002,2.858  C24.385,18.75,23.643,18.756,22.902,18.76z M21.855,18.767c-0.742,0.004-1.482,0.007-2.225,0.009c0-0.961,0-1.922,0-2.884  c0.741,0,1.482-0.001,2.225-0.002C21.855,16.849,21.855,17.808,21.855,18.767z M18.585,18.779c-0.743,0.001-1.486,0.001-2.229,0  c0-0.961,0-1.923,0-2.885c0.742,0,1.486,0,2.229,0C18.585,16.855,18.585,17.817,18.585,18.779z M15.31,18.777  c-0.742-0.002-1.483-0.005-2.225-0.009c0-0.959,0-1.918,0-2.877c0.742,0,1.483,0.001,2.225,0.002  C15.31,16.854,15.31,17.815,15.31,18.777z M12.039,18.76c-0.742-0.005-1.483-0.011-2.225-0.019c0-0.953,0-1.905,0.001-2.858  c0.742,0.001,1.483,0.004,2.224,0.004C12.039,16.845,12.039,17.803,12.039,18.76z M12.039,19.827c0,0.957-0.001,1.915-0.001,2.872  c-0.741-0.01-1.483-0.021-2.224-0.035c0-0.953,0-1.906,0-2.859C10.555,19.813,11.296,19.819,12.039,19.827z M8.768,22.64  c-0.741-0.018-1.482-0.035-2.223-0.057c0-0.943,0-1.887,0-2.831c0.741,0.013,1.482,0.025,2.223,0.036  C8.768,20.739,8.768,21.689,8.768,22.64z M8.767,23.697c0,0.944,0,1.89,0,2.832c-0.741-0.024-1.482-0.053-2.223-0.084  c0-0.938,0-1.873,0-2.811C7.284,23.658,8.026,23.679,8.767,23.697z M8.766,27.587c0,0.949-0.001,1.898-0.001,2.85  c-0.74-0.033-1.481-0.068-2.222-0.111c0-0.942,0-1.887,0-2.83C7.284,27.529,8.025,27.56,8.766,27.587z M8.765,31.494  c0,0.951-0.001,1.9-0.001,2.852c-0.74-0.04-1.481-0.087-2.221-0.139c0-0.943,0-1.887,0-2.831C7.283,31.42,8.023,31.459,8.765,31.494  z M8.763,35.404c0,0.949,0,1.899,0,2.851c-0.741-0.052-1.481-0.104-2.22-0.168c0-0.942,0-1.886,0-2.829  C7.282,35.31,8.022,35.361,8.763,35.404z M8.762,39.312c0,0.949,0,1.899-0.001,2.852c-0.741-0.059-1.48-0.123-2.219-0.195  c0-0.943,0-1.889,0-2.83C7.281,39.203,8.021,39.26,8.762,39.312z M8.76,43.219c0,0.944,0,1.888-0.001,2.832  c-0.74-0.065-1.479-0.14-2.218-0.224c0-0.938,0-1.875,0-2.812C7.281,43.092,8.02,43.16,8.76,43.219z M8.759,47.109  c0,0.951,0,1.9,0,2.851c-0.741-0.073-1.48-0.158-2.219-0.253c0-0.942,0-1.887,0-2.828C7.279,46.964,8.019,47.039,8.759,47.109z   M9.804,47.201c0.741,0.06,1.483,0.111,2.224,0.154c0,0.955,0,1.912,0,2.868c-0.742-0.045-1.484-0.103-2.225-0.166  C9.804,49.107,9.804,48.154,9.804,47.201z M12.027,51.291c0,0.957,0,1.916,0,2.873c-0.742-0.053-1.484-0.114-2.225-0.188  c0-0.951,0.001-1.904,0.001-2.857C10.544,51.187,11.285,51.244,12.027,51.291z M13.075,51.353c0.743,0.039,1.486,0.067,2.229,0.086  c0,0.961,0,1.922,0,2.885c-0.743-0.021-1.487-0.053-2.229-0.094C13.075,53.269,13.075,52.312,13.075,51.353z M16.353,51.459  c0.745,0.009,1.49,0.009,2.235,0c0,0.961,0,1.924,0,2.885c-0.745,0.013-1.491,0.013-2.235,0  C16.353,53.382,16.353,52.42,16.353,51.459z M19.639,51.439c0.741-0.019,1.485-0.049,2.229-0.086c0,0.959,0,1.92,0.001,2.877  c-0.743,0.041-1.485,0.072-2.229,0.094C19.639,53.361,19.639,52.4,19.639,51.439z M22.913,51.291  c0.743-0.047,1.483-0.104,2.226-0.172c0,0.953,0,1.906,0,2.857c-0.74,0.073-1.481,0.135-2.224,0.188  C22.914,53.205,22.914,52.248,22.913,51.291z M22.913,50.224c-0.001-0.956-0.001-1.912-0.001-2.869  c0.742-0.043,1.484-0.095,2.225-0.154c0,0.953,0,1.906,0.002,2.857C24.396,50.123,23.654,50.179,22.913,50.224z M26.184,47.109  c0.739-0.066,1.479-0.145,2.217-0.229c0,0.942,0,1.887,0,2.83c-0.736,0.092-1.478,0.177-2.217,0.252  C26.184,49.009,26.184,48.06,26.184,47.109z M26.184,46.051c-0.002-0.944-0.002-1.888-0.002-2.832  c0.739-0.06,1.48-0.127,2.219-0.202c0,0.938,0,1.873,0,2.811C27.662,45.912,26.923,45.986,26.184,46.051z M26.182,42.162  c0-0.95-0.002-1.9-0.002-2.85c0.74-0.052,1.48-0.109,2.219-0.176c0.002,0.943,0.002,1.887,0.002,2.83  C27.662,42.039,26.921,42.105,26.182,42.162z M26.18,38.253c0-0.95,0-1.9-0.002-2.852c0.742-0.041,1.482-0.093,2.221-0.146  c0,0.942,0,1.887,0,2.829C27.66,38.15,26.92,38.203,26.18,38.253z M26.178,34.345c0-0.949,0-1.898,0-2.852  c0.74-0.034,1.481-0.073,2.221-0.117c0,0.943,0,1.887,0,2.83C27.659,34.258,26.918,34.305,26.178,34.345z M26.177,30.437  c0-0.949,0-1.9-0.001-2.85c0.741-0.027,1.481-0.059,2.221-0.092c0,0.943,0.002,1.888,0.002,2.83  C27.659,30.367,26.918,30.404,26.177,30.437z M26.176,26.529c-0.001-0.942-0.001-1.888-0.001-2.832  c0.742-0.018,1.482-0.039,2.222-0.063c0,0.938,0,1.873,0,2.811C27.657,26.476,26.917,26.503,26.176,26.529z M26.174,22.64  c0-0.951-0.001-1.901-0.001-2.851c0.741-0.01,1.483-0.022,2.224-0.035c0,0.943,0,1.886,0,2.831  C27.657,22.605,26.915,22.623,26.174,22.64z M8.769,15.881c0,0.95,0,1.9-0.001,2.85c-0.741-0.008-1.482-0.018-2.223-0.028  c0-0.943,0-1.887,0-2.83C7.286,15.876,8.028,15.878,8.769,15.881z M6.54,50.758c0.738,0.097,1.478,0.183,2.218,0.258  c0,0.95,0,1.901,0,2.853c-0.741-0.084-1.48-0.178-2.218-0.28C6.54,52.646,6.54,51.701,6.54,50.758z M26.184,53.869  c0-0.95,0-1.899,0-2.853c0.739-0.075,1.479-0.163,2.217-0.259c0.002,0.941,0.002,1.889,0.002,2.83  C27.663,53.693,26.925,53.785,26.184,53.869z"/>
<path fill="#FFFFFF" id="svg4.highlight_2_" d="M0,0.943h5.497c0,0,6.847-0.943,11.974-0.943  C22.6,0,29.48,0.943,29.48,0.943h5.496v41.951c0,0-12.076-0.521-18.623-2.548C9.807,38.32,0,30.557,0,30.557V0.943z" enable-background="new    " opacity="0.17"/>
</svg>
      </g>
    </g>
    <g text-rendering="geometricPrecision" stroke-miterlimit="1.45" shape-rendering="geometricPrecision" font-family="sans-serif" transform="matrix(1,0,0,1,40,29)" stroke-linecap="butt">
      <text x="73.5477" xml:space="preserve" y="229.7139" clip-path="url(#clipPath2)" stroke="none">Web server</text>
    </g>
    <g text-rendering="geometricPrecision" stroke-miterlimit="1.45" shape-rendering="geometricPrecision" transform="matrix(1,0,0,1,40,29)" stroke-linecap="butt">
      <path fill="none" d="M50 64 L50 93.5193" clip-path="url(#clipPath2)"/>
      <path d="M50 101.5193 L55 89.5193 L50 92.5193 L45 89.5193 Z" clip-path="url(#clipPath2)" stroke="none"/>
      <text x="-17.7109" xml:space="preserve" y="87.4919" clip-path="url(#clipPath2)" font-family="sans-serif" stroke="none">Sensor data</text>
      <path fill="none" d="M50 148.444 L50 188.8367" clip-path="url(#clipPath2)"/>
      <path d="M50 196.8367 L55 184.8367 L50 187.8367 L45 184.8367 Z" clip-path="url(#clipPath2)" stroke="none"/>
      <text x="-18.7109" xml:space="preserve" y="172.6335" clip-path="url(#clipPath2)" font-family="sans-serif" stroke="none">Sensor data</text>
      <path fill="none" d="M50 323.3429 L50 261.116" clip-path="url(#clipPath2)"/>
      <path d="M50 253.116 L45 265.116 L50 262.116 L55 265.116 Z" clip-path="url(#clipPath2)" stroke="none"/>
      <text x="-22.6953" xml:space="preserve" y="303.7307" clip-path="url(#clipPath2)" font-family="sans-serif" stroke="none">User request</text>
      <path fill="none" d="M62 253.116 L62 315.3429" clip-path="url(#clipPath2)"/>
      <path d="M62 323.3429 L67 311.3429 L62 314.3429 L57 311.3429 Z" clip-path="url(#clipPath2)" stroke="none"/>
      <text x="77.1185" xml:space="preserve" y="285.7852" clip-path="url(#clipPath2)" font-family="sans-serif" stroke="none">Formatted data</text>
      <path fill="none" d="M62 196.8358 L62 155.4753" clip-path="url(#clipPath2)"/>
      <path d="M62 147.4753 L57 159.4753 L62 156.4753 L67 159.4753 Z" clip-path="url(#clipPath2)" stroke="none"/>
      <text x="65" xml:space="preserve" y="182.1223" clip-path="url(#clipPath2)" font-family="sans-serif" stroke="none">User request</text>
    </g>
  </g>
</svg>
